# xmcd
#
# Track frame offsets:
#	150
#	16968
#	37589
#	59037
#	77143
#	94801
#	116031
#	134671
#	152625
#	171721
#	194224
#	211654
#
# Disc length: 3118 seconds
#
# Revision: 0
# Processed by: cddbd v1.5.2PL0 Copyright (c) Steve Scherf et al.
# Submitted via: FairStars CD Ripper 1.90
#
DISCID=ac0c2c0c
DTITLE=Harem Scarem - The Essentials
DYEAR=2005
DGENRE=Hard Rock
TTITLE0=Slowly Slipping Away
TTITLE1=No Justice
TTITLE2=Blue
TTITLE3=Honestly
TTITLE4=Had Enough
TTITLE5=Something To Say
TTITLE6=Jealousy
TTITLE7=With A Little Love
TTITLE8=Voice Of Reason
TTITLE9=Change Comes Around
TTITLE10=Love Reaction
TTITLE11=If There Was A Time
EXTD=
EXTT0=
EXTT1=
EXTT2=
EXTT3=
EXTT4=
EXTT5=
EXTT6=
EXTT7=
EXTT8=
EXTT9=
EXTT10=
EXTT11=
PLAYORDER=
